<?xml version="1.0" encoding="UTF-8"?>
<svg width="52px" height="18px" viewBox="0 0 52 18" version="1.1" xmlns="http://www.w3.org/2000/svg" xmlns:xlink="http://www.w3.org/1999/xlink">
    <!-- Generator: sketchtool 51.3 (57544) - http://www.bohemiancoding.com/sketch -->
    <title>A343CF98-D774-4A37-8491-BA1466FF201D</title>
    <desc>Created with sketchtool.</desc>
    <defs></defs>
    <g id="Page-1" stroke="none" stroke-width="1" fill="none" fill-rule="evenodd">
        <g id="Desk-EN" transform="translate(-275.000000, -30.000000)" fill="black">
            <g id="#header" transform="translate(275.000000, 30.000000)">
                <path d="M23.5049,14.385 L23.5049,12.1 C23.0669,12.028 22.5459,11.98 22.0569,11.98 C20.8729,11.98 20.1389,12.444 20.1389,13.525 C20.1389,14.626 20.8289,15.104 21.7809,15.104 C22.4439,15.104 23.0399,14.777 23.5049,14.385 M23.7539,16.279 C22.8419,17.292 21.6379,17.691 20.0409,17.691 C17.7519,17.691 15.9309,16.381 15.9309,13.824 C15.9309,11.092 18.0209,9.79 21.0219,9.79 C22.0039,9.79 22.7629,9.887 23.5049,10.031 L23.5049,9.153 C23.5049,8.026 22.9149,7.506 21.3159,7.506 C20.0389,7.506 18.9799,7.873 18.2419,8.368 L16.9119,8.368 L16.9119,5.389 C18.1209,4.87 19.8589,4.353 22.1759,4.353 C26.0369,4.353 27.9269,5.631 27.9269,8.826 L27.9319,17.513 L25.5209,17.513 C24.4899,17.513 23.9969,17.148 23.7539,16.279 M43.6865,3.7122 L43.6865,2.8982 L44.5005,0.2212 L48.7575,0.2212 L48.7575,1.2772 L46.2725,3.7122 L43.6865,3.7122 Z M42.9535,9.6942 L46.9865,9.6942 C46.9125,7.6982 46.2505,7.0542 45.0685,7.0542 C44.0555,7.0542 43.1995,7.5782 42.9535,9.6942 Z M42.9315,11.9962 C43.1505,14.1912 44.1875,14.7632 45.9785,14.7632 C47.4305,14.7632 48.5155,14.3292 49.2755,13.8012 L50.6495,13.8012 L50.6495,16.4292 C49.5175,17.0602 47.9925,17.7082 45.2865,17.7082 C40.7885,17.7082 38.4575,15.2062 38.4535,11.1252 C38.4535,6.9572 41.1615,4.3522 45.0665,4.3522 C49.0985,4.3522 51.1655,6.4942 51.1655,10.8652 C51.1655,11.3882 51.1205,11.8612 51.1205,11.9962 L42.9315,11.9962 Z M29.5713,4.551 L30.9733,4.551 L30.9733,3.763 C30.9733,1.108 32.5983,0 35.4023,0 C36.5343,0 37.2203,0.171 37.7623,0.372 L37.7623,2.833 L36.9023,2.833 C35.9233,2.833 35.4023,3.031 35.4023,3.935 L35.4023,4.551 L37.6153,4.551 L37.6203,7.402 L35.4023,7.402 L35.4063,17.513 L30.9823,17.513 L30.9783,7.402 L29.5783,7.402 L29.5713,4.551 Z M0,9.0002 C0,3.3692 3.536,0.0712 8.85,0.0772 C11.255,0.0772 12.733,0.5652 14.017,1.3012 L14.017,4.5752 L12.195,4.5752 C11.554,3.9832 10.523,3.4482 8.971,3.4482 C6.372,3.4482 4.813,5.1912 4.815,8.8262 C4.815,12.7702 6.172,14.4342 8.752,14.4342 C10.603,14.4342 11.658,13.7502 12.49,12.9372 L14.168,12.9372 L14.168,16.0482 C12.863,17.0212 11.02,17.7302 8.458,17.7302 C3.294,17.7302 0.003,14.5862 0,9.0002 Z" id="loga-cafe"></path>
            </g>
        </g>
    </g>
</svg>