<svg width="24" height="24" viewBox="0 0 24 24" fill="none" xmlns="http://www.w3.org/2000/svg">
<path fill-rule="evenodd" clip-rule="evenodd" d="M16.7571 6.41629L20.2571 12.4785C21.2042 11.9316 23.7792 9.62764 23.6917 6.42316C20.7622 4.63747 17.7043 5.86946 16.7571 6.41629ZM4.50028 18.1265L5.5872 19.7612L9.35087 17.5884L8.36161 15.8745L4.50028 18.1265ZM10.0891 14.8667L8.59794 12.2847L6.86552 13.2847L8.36161 15.8745L10.0891 14.8667ZM11.0833 16.5884L11.5979 17.481L18.5345 13.4761L15.0345 7.41358L8.09794 11.4185L10.0891 14.8667L12.3802 13.5308L13.3802 15.2632L11.0833 16.5884ZM11.0833 16.5884L11.0979 16.6148L9.36552 17.6148L9.35087 17.5884L11.0833 16.5884ZM0.000110708 17.2146L1.00011 18.7636L5.33036 16.4466L4.32951 14.715L0.000110708 17.2146Z" fill="white"/>
</svg>
