<svg width="40" height="40" viewBox="0 0 40 40" fill="none" xmlns="http://www.w3.org/2000/svg">
<g clip-path="url(#clip0_6362_11067)">
<path d="M25.458 32.4336H13.2998V23.9668H25.458V32.4336ZM29.2422 25.0752H31.6084C31.8167 25.0835 32.0667 25.1 32.3584 25.125C33.9334 25.2667 36.5749 25.7669 38.2832 27.4502L38.2754 27.4414L39.042 28.2002L38.2754 28.958C36.5671 30.6497 33.9246 31.1415 32.3496 31.2832L31.4082 31.3418H29.4746L27.375 32.2246V24.2168L29.2422 25.0752ZM6.66699 31.4248H3.29199V29.375H6.66699V31.4248ZM11.3838 31.4082H9.16699V25H11.3838V31.4082ZM6.66699 27.0918H0V25.042H6.66699V27.0918ZM26.7168 15.9668H14.5586V7.5H26.7168V15.9668ZM12.6416 15.7246L10.7754 14.8662H8.4082C8.19989 14.8579 7.94983 14.8414 7.6582 14.8164C6.08319 14.6747 3.4417 14.1745 1.7334 12.4912L1.74121 12.5L0.974609 11.7412L1.74121 10.9834C3.44954 9.29173 6.09199 8.79987 7.66699 8.6582L8.6084 8.59961H10.542L12.6416 7.7168V15.7246ZM30.8496 14.9414H28.6328V8.5332H30.8496V14.9414ZM40.0166 14.8916H33.3496V12.8418H40.0166V14.8916ZM36.7246 10.5586H33.3496V8.50781H36.7246V10.5586Z" fill="white"/>
</g>
<defs>
<clipPath id="clip0_6362_11067">
<rect width="40" height="40" fill="white"/>
</clipPath>
</defs>
</svg>
