<svg width="50" height="24" viewBox="0 0 50 24" fill="none" xmlns="http://www.w3.org/2000/svg">
<path d="M12.0009 5.81519C12.0693 5.81519 12.1173 5.84451 12.1173 5.91203V9.88005C12.1178 9.89536 12.1151 9.91061 12.1094 9.9248C12.1036 9.93899 12.0949 9.9518 12.0838 9.96238C12.0727 9.97296 12.0595 9.98107 12.0451 9.98617C12.0306 9.99128 12.0153 9.99326 12 9.992H11.3781V5.81607L12.0009 5.81519Z" fill="white"/>
<path d="M3.84984 9.43582V6.36341C3.8503 6.31308 3.86543 6.26399 3.89338 6.22214H3.84984C1.5673 6.22214 0 6.97558 0 7.90317C0 8.83076 1.56819 9.5842 3.84984 9.5842H3.89871C3.86763 9.54023 3.85059 9.48788 3.84984 9.43404" fill="white"/>
<path d="M10.1164 6.00177C10.4256 6.00177 10.6433 6.13504 10.6433 6.44602V9.30342C10.6459 9.3723 10.6339 9.44096 10.608 9.50487C10.5821 9.56877 10.543 9.62647 10.4932 9.67415C10.4435 9.72184 10.3841 9.75843 10.3192 9.78152C10.2542 9.8046 10.1851 9.81365 10.1164 9.80808H5.34873C5.03954 9.80808 4.59351 9.74588 4.59351 9.4358V6.36339C4.59351 6.05508 5.03776 6.00177 5.34873 6.00177H10.1164Z" fill="white"/>
<path d="M37.8158 18.1869C37.7483 18.1869 37.6994 18.1575 37.7003 18.0891V14.1202C37.6996 14.1051 37.7022 14.09 37.7078 14.0759C37.7134 14.0618 37.722 14.0491 37.7329 14.0386C37.7438 14.028 37.7569 14.02 37.7712 14.0149C37.7855 14.0098 37.8007 14.0079 37.8158 14.0092H38.4378C38.4378 14.4472 38.4378 17.6938 38.4378 18.1851L37.8158 18.1869Z" fill="white"/>
<path d="M45.9689 14.5678V17.6375C45.9689 17.6876 45.9537 17.7365 45.9254 17.7779H45.9689C48.2514 17.7779 49.8187 17.0244 49.8187 16.0969C49.8187 15.1693 48.2506 14.4158 45.9689 14.4167C45.9529 14.4167 45.936 14.4167 45.9192 14.4167C45.951 14.46 45.9684 14.5122 45.9689 14.566" fill="white"/>
<path d="M39.701 18.0001C39.391 18.0001 39.1742 17.8668 39.1742 17.5558V14.7046C39.1716 14.6357 39.1836 14.5671 39.2094 14.5032C39.2353 14.4393 39.2744 14.3816 39.3242 14.3339C39.374 14.2862 39.4333 14.2496 39.4983 14.2265C39.5632 14.2034 39.6323 14.1944 39.701 14.2H44.4687C44.777 14.2 45.2239 14.263 45.2239 14.5714V17.6367C45.2239 17.945 44.7797 17.9983 44.4687 17.9983L39.701 18.0001Z" fill="white"/>
<path d="M22.6575 9.74678H27.1533V14.255H22.6575V9.74678ZM30.8387 9.74678H36.9116V6.06131H30.8387V0H27.1533V6.06131H22.6575V0H18.9711V6.06131H12.9054V9.74678H18.9711V14.255H12.9054V17.9405H18.9711V24H22.6575V17.9405H27.1533V24H30.8387V17.9405H36.9125V14.255H30.8387V9.74678Z" fill="white"/>
</svg>
