<svg width="40" height="40" viewBox="0 0 40 40" fill="none" xmlns="http://www.w3.org/2000/svg">
<path d="M8.61719 36.667H4.00879V33.6084H8.61719V36.667ZM35.9834 36.667H31.375V33.6084H35.9834V36.667ZM34.0918 23.083C36.6665 23.083 37.4999 24.1665 37.5 26.4912V31.5586H26.9004L24.2334 26.9502H15.7754L13.083 31.5586H2.5V26.4912C2.5001 24.1665 3.33346 23.083 5.9082 23.083H34.0918ZM24.5752 31.5586H15.4004L16.9414 28.9004H23.042L24.5752 31.5586ZM6.1748 27.3086H10.1748V25.2578H6.1748V27.3086ZM29.8252 27.3086H33.8252V25.2578H29.8252V27.3086ZM31.1943 17.292H35.833V19.792H31.9717L32.3584 21.0332H7.65039L8.03711 19.792H4.16699V17.292H8.81445L9.72559 14.3662H30.2832L31.1943 17.292ZM17.3086 12.3164H13.6836L14.3418 10.0918H17.3086V12.3164ZM21.4082 12.3164H18.5254V10.0918H21.4082V12.3164ZM26.3164 12.3164H22.6914V10.0918H25.6582L26.3164 12.3164ZM8.9502 9.5498L7.9248 11.3252L3.8916 9L4.91699 7.22461L8.9502 9.5498ZM36.1084 9L32.0752 11.3252L31.0498 9.5498L35.083 7.22461L36.1084 9ZM14.3662 6.55859L12.5918 7.58301L10.2666 3.5498L12.042 2.52539L14.3662 6.55859ZM29.7246 3.5498L27.4004 7.58301L25.625 6.55859L27.9502 2.52539L29.7246 3.5498ZM21.0254 6.31641H18.9746V1.66699H21.0254V6.31641Z" fill="white"/>
</svg>
