<svg width="14" height="14" viewBox="0 0 14 14" fill="none" xmlns="http://www.w3.org/2000/svg">
<path d="M6.69922 5.63281L5.79688 6.125C5.55078 5.57812 5.11328 5.57812 5.05859 5.57812C4.45703 5.57812 4.12891 5.96094 4.12891 6.78125C4.12891 7.41016 4.40234 7.95703 5.05859 7.95703C5.44141 7.95703 5.71484 7.76562 5.87891 7.38281L6.72656 7.82031C6.5625 8.12109 6.01562 8.88672 4.94922 8.88672C4.32031 8.88672 2.92578 8.58594 2.92578 6.78125C2.92578 5.16797 4.10156 4.67578 4.89453 4.67578C5.74219 4.64844 6.34375 4.97656 6.69922 5.63281ZM10.6094 5.63281L9.73438 6.125C9.46094 5.57812 9.02344 5.57812 8.96875 5.57812C8.36719 5.57812 8.03906 5.96094 8.03906 6.78125C8.03906 7.41016 8.3125 7.95703 8.96875 7.95703C9.35156 7.95703 9.625 7.76562 9.78906 7.38281L10.6367 7.82031C10.582 7.90234 10.0625 8.88672 8.85938 8.88672C8.23047 8.88672 6.83594 8.61328 6.83594 6.78125C6.83594 5.16797 8.01172 4.67578 8.83203 4.67578C9.67969 4.64844 10.2539 4.97656 10.6094 5.63281ZM6.75391 0C10.6367 0 13.5625 3.00781 13.5625 6.78125C13.5625 10.8008 10.3086 13.5625 6.75391 13.5625C3.08984 13.5625 0 10.5547 0 6.78125C0 3.14453 2.84375 0 6.75391 0ZM6.78125 12.3047C9.59766 12.3047 12.332 10.0898 12.332 6.78125C12.332 3.66406 9.84375 1.20312 6.78125 1.20312C3.55469 1.20312 1.20312 3.88281 1.20312 6.78125C1.20312 9.76172 3.69141 12.3047 6.78125 12.3047Z" fill="#D9D0DB"/>
</svg>
