<svg width="40" height="40" viewBox="0 0 40 40" fill="none" xmlns="http://www.w3.org/2000/svg">
<path d="M12.4248 15.6084V22.2588L5.83301 26.1836V36.667H3.33301V15.6084L7.875 13.0166L12.4248 15.6084ZM19.0254 27.2998V36.667H16.583V29.125H10.2334V36.667H7.79199V27.2998L13.4082 24.0166L19.0254 27.2998ZM14.625 36.667H12.1836V31.0752H14.625V36.667ZM32.208 36.667H20.9746V27.9004H32.208V36.667ZM36.667 36.667H34.167V25.9414L25.6582 21.0332H23.9082V3.33301H36.667V36.667ZM30.417 25.9414H20.6328L15.4746 22.9834H25.2998L30.417 25.9414ZM31.5078 21.9004H33.458V18.9668H31.5078V21.9004ZM21.958 21.0332H14.3828V16.1748H21.958V21.0332ZM6.9082 20.1748H8.8584V17.2422H6.9082V20.1748ZM27.1162 15.9414H29.0664V13.0088H27.1162V15.9414ZM31.5078 15.9414H33.458V13.0088H31.5078V15.9414ZM21.9502 14.2246H14.0078L10.0078 11.917H21.9502V14.2246ZM27.1162 9.8916H29.0664V6.95801H27.1162V9.8916ZM31.5078 9.8916H33.458V6.95801H31.5078V9.8916Z" fill="white"/>
</svg>
