<svg width="21" height="20" viewBox="0 0 21 20" fill="none" xmlns="http://www.w3.org/2000/svg">
<path d="M10.5195 5.41016C12.9805 5.41016 15.0117 7.44141 15.0117 9.90234C15.0117 12.4023 12.9805 14.3945 10.5195 14.3945C8.01953 14.3945 6.02734 12.4023 6.02734 9.90234C6.02734 7.44141 8.01953 5.41016 10.5195 5.41016ZM10.5195 12.832C12.1211 12.832 13.4102 11.543 13.4102 9.90234C13.4102 8.30078 12.1211 7.01172 10.5195 7.01172C8.87891 7.01172 7.58984 8.30078 7.58984 9.90234C7.58984 11.543 8.91797 12.832 10.5195 12.832ZM16.2227 5.25391C16.2227 5.83984 15.7539 6.30859 15.168 6.30859C14.582 6.30859 14.1133 5.83984 14.1133 5.25391C14.1133 4.66797 14.582 4.19922 15.168 4.19922C15.7539 4.19922 16.2227 4.66797 16.2227 5.25391ZM19.1914 6.30859C19.2695 7.75391 19.2695 12.0898 19.1914 13.5352C19.1133 14.9414 18.8008 16.1523 17.7852 17.207C16.7695 18.2227 15.5195 18.5352 14.1133 18.6133C12.668 18.6914 8.33203 18.6914 6.88672 18.6133C5.48047 18.5352 4.26953 18.2227 3.21484 17.207C2.19922 16.1523 1.88672 14.9414 1.80859 13.5352C1.73047 12.0898 1.73047 7.75391 1.80859 6.30859C1.88672 4.90234 2.19922 3.65234 3.21484 2.63672C4.26953 1.62109 5.48047 1.30859 6.88672 1.23047C8.33203 1.15234 12.668 1.15234 14.1133 1.23047C15.5195 1.30859 16.7695 1.62109 17.7852 2.63672C18.8008 3.65234 19.1133 4.90234 19.1914 6.30859ZM17.3164 15.0586C17.7852 13.9258 17.668 11.1914 17.668 9.90234C17.668 8.65234 17.7852 5.91797 17.3164 4.74609C17.0039 4.00391 16.418 3.37891 15.6758 3.10547C14.5039 2.63672 11.7695 2.75391 10.5195 2.75391C9.23047 2.75391 6.49609 2.63672 5.36328 3.10547C4.58203 3.41797 3.99609 4.00391 3.68359 4.74609C3.21484 5.91797 3.33203 8.65234 3.33203 9.90234C3.33203 11.1914 3.21484 13.9258 3.68359 15.0586C3.99609 15.8398 4.58203 16.4258 5.36328 16.7383C6.49609 17.207 9.23047 17.0898 10.5195 17.0898C11.7695 17.0898 14.5039 17.207 15.6758 16.7383C16.418 16.4258 17.043 15.8398 17.3164 15.0586Z" fill="white"/>
</svg>
