<svg width="21" height="20" viewBox="0 0 21 20" fill="none" xmlns="http://www.w3.org/2000/svg">
<path d="M5.79297 17.5H2.16016V5.82031H5.79297V17.5ZM3.95703 4.25781C2.82422 4.25781 1.88672 3.28125 1.88672 2.10937C1.88672 0.976562 2.82422 0.0390625 3.95703 0.0390625C5.12891 0.0390625 6.06641 0.976562 6.06641 2.10937C6.06641 3.28125 5.12891 4.25781 3.95703 4.25781ZM19.3477 17.5H15.7539V11.8359C15.7539 10.4687 15.7148 8.75 13.8398 8.75C11.9648 8.75 11.6914 10.1953 11.6914 11.7187V17.5H8.05859V5.82031H11.5352V7.42187H11.5742C12.082 6.52344 13.2539 5.54687 15.0117 5.54687C18.6836 5.54687 19.3867 7.96875 19.3867 11.0937V17.5H19.3477Z" fill="white"/>
</svg>
