<svg width="239" height="24" viewBox="0 0 239 24" fill="none" xmlns="http://www.w3.org/2000/svg">
<path d="M0 23.6386V0.290835H10.0982V4.14164H4.37725V9.83316H9.80371V13.684H4.37725V23.6349H0V23.6386Z" fill="white"/>
<path d="M18.0134 23.9331C15.8229 23.9331 14.2583 23.4803 13.3158 22.5747C12.3734 21.669 11.8874 20.167 11.858 18.0649C11.8175 15.1271 11.7991 12.1635 11.7991 9.1705C11.7991 6.17748 11.8175 3.21759 11.858 0.290835H16.2352C16.1947 2.24569 16.1726 4.28521 16.1689 6.40573C16.1653 8.52625 16.1689 10.6468 16.1837 12.7673C16.1984 14.8878 16.2131 16.9273 16.2352 18.8822C16.2352 19.3608 16.3898 19.7252 16.7028 19.9829C17.0157 20.2406 17.4501 20.3695 18.017 20.3695C18.584 20.3695 19.0258 20.2406 19.324 19.9829C19.6222 19.7252 19.7694 19.3571 19.7694 18.8822C19.7878 16.9273 19.8062 14.8878 19.8209 12.7673C19.8357 10.6468 19.8394 8.52625 19.8357 6.40573C19.832 4.28521 19.8099 2.24569 19.7694 0.290835H24.1467C24.1945 3.21759 24.2203 6.17748 24.2203 9.1705C24.2203 12.1635 24.1945 15.1271 24.1467 18.0649C24.1172 20.167 23.6349 21.669 22.6962 22.5747C21.7574 23.4803 20.2001 23.9331 18.0207 23.9331H18.0134Z" fill="white"/>
<path d="M29.4627 23.6386V4.14532H25.7113V0.290835H37.5913V4.14164H33.8399V23.6386H29.4627Z" fill="white"/>
<path d="M45.3334 23.9331C43.143 23.9331 41.5783 23.4803 40.6359 22.5747C39.6934 21.669 39.2075 20.167 39.178 18.0649C39.1375 15.1271 39.1191 12.1635 39.1191 9.1705C39.1191 6.17748 39.1375 3.21759 39.178 0.290835H43.5553C43.5148 2.24569 43.4927 4.28521 43.489 6.40573C43.4853 8.52625 43.489 10.6468 43.5037 12.7673C43.5185 14.8878 43.5332 16.9273 43.5553 18.8822C43.5553 19.3608 43.7099 19.7252 44.0228 19.9829C44.3358 20.2406 44.7702 20.3695 45.3371 20.3695C45.9041 20.3695 46.3458 20.2406 46.644 19.9829C46.9422 19.7252 47.0895 19.3571 47.0895 18.8822C47.1079 16.9273 47.1263 14.8878 47.141 12.7673C47.1557 10.6468 47.1594 8.52625 47.1557 6.40573C47.1521 4.28521 47.13 2.24569 47.0895 0.290835H51.4667C51.5146 3.21759 51.5404 6.17748 51.5404 9.1705C51.5404 12.1635 51.5146 15.1271 51.4667 18.0649C51.4373 20.167 50.955 21.669 50.0162 22.5747C49.0775 23.4803 47.5202 23.9331 45.3408 23.9331H45.3334Z" fill="white"/>
<path d="M53.5652 23.6386V0.290835H59.1978C61.3772 0.290835 62.9492 0.732609 63.9174 1.61248C64.8856 2.49234 65.4047 3.9502 65.471 5.98236C65.4894 6.52722 65.5041 7.00213 65.5078 7.41445C65.5115 7.82309 65.5115 8.23173 65.5078 8.64037C65.5041 9.04901 65.4894 9.52392 65.471 10.0688C65.4305 11.3352 65.2206 12.3697 64.8378 13.1759C64.4549 13.9822 63.8585 14.6006 63.0486 15.0277L65.7913 23.6386H61.1526L58.9364 15.7603H57.9424V23.6386H53.5652ZM57.9424 11.9058H59.1978C59.8089 11.9058 60.2728 11.7659 60.5857 11.4825C60.8986 11.199 61.068 10.8051 61.0974 10.3007C61.1269 9.82212 61.1453 9.32512 61.1563 8.80604C61.1674 8.28695 61.1674 7.76419 61.1563 7.2451C61.1453 6.72602 61.1269 6.22534 61.0974 5.75043C61.068 5.23503 60.8986 4.83743 60.5857 4.56132C60.2728 4.28521 59.8126 4.14532 59.1978 4.14532H57.9424V11.9095V11.9058Z" fill="white"/>
<path d="M88.8703 23.9331V0.585351H98.9685V4.43615H93.2476V10.1277H98.674V13.9785H93.2476V20.0787H98.9685V23.9295H88.8703V23.9331Z" fill="white"/>
<path d="M100.437 23.9331L104.086 11.7917L100.526 0.585351H104.815L106.331 6.04127L106.711 10.0393H107.292L107.671 6.04127L109.129 0.585351H113.418L110.031 11.939L113.503 23.9331H109.214L107.668 18.1827L107.289 13.8938H106.707L106.328 18.1827L104.723 23.9331H100.434H100.437Z" fill="white"/>
<path d="M118.189 23.9331V4.43615H114.438V0.585351H126.318V4.43615H122.567V23.9331H118.189Z" fill="white"/>
<path d="M127.964 23.9331V0.585351H138.062V4.43615H132.341V10.1277H137.767V13.9785H132.341V20.0787H138.062V23.9295H127.964V23.9331Z" fill="white"/>
<path d="M139.906 23.9331V0.585351H145.539C147.718 0.585351 149.29 1.02713 150.259 1.90699C151.227 2.78686 151.746 4.24472 151.812 6.27688C151.831 6.82173 151.845 7.29664 151.849 7.70896C151.853 8.11761 151.853 8.52625 151.849 8.93489C151.845 9.34353 151.831 9.81844 151.812 10.3633C151.772 11.6297 151.562 12.6642 151.179 13.4704C150.796 14.2767 150.2 14.8952 149.39 15.3222L152.132 23.9331H147.494L145.278 16.0548H144.284V23.9331H139.906ZM144.287 12.2003H145.543C146.154 12.2003 146.618 12.0604 146.931 11.777C147.243 11.4935 147.413 11.0996 147.442 10.5952C147.472 10.1166 147.49 9.61964 147.501 9.10055C147.512 8.58147 147.512 8.0587 147.501 7.53962C147.49 7.02053 147.472 6.51986 147.442 6.04495C147.413 5.52954 147.243 5.13195 146.931 4.85584C146.618 4.57973 146.157 4.43983 145.543 4.43983H144.287V12.204V12.2003Z" fill="white"/>
<path d="M153.944 23.9331V0.585351H160.979L162.904 9.4282L163.284 20.0787H164.042L164.392 9.4282L166.346 0.585351H173.349V23.9331H168.971V16.7543L169.818 4.43983H169.03L167.804 17.0488L165.993 23.9368H161.296L159.517 17.0488L158.262 4.43983H157.504L158.321 16.7543V23.9331H153.944Z" fill="white"/>
<path d="M175.55 23.9331V0.585351H179.927V23.9331H175.55Z" fill="white"/>
<path d="M182.125 0.585351H188.457L190.21 8.02557L191.815 20.0787H192.573L191.756 10.5952L191.406 0.585351H195.64V23.9331H188.984L187.231 16.2868L186.035 4.41038H185.218L185.976 14.9762L186.355 23.9368H182.125V0.585351Z" fill="white"/>
<path d="M197.355 23.9331L200.595 0.585351H207.483L210.723 23.9331H206.228L205.731 19.0589H202.344L201.847 23.9331H197.352H197.355ZM202.756 15.2044H205.326L204.799 10.0393L204.45 4.43615H203.632L203.283 10.0393L202.756 15.2044Z" fill="white"/>
<path d="M212.424 23.9331V0.585351H218.347C220.537 0.585351 222.121 1.04921 223.096 1.98062C224.075 2.90835 224.583 4.43983 224.62 6.5714C224.65 7.92249 224.668 9.20732 224.679 10.4222C224.69 11.6371 224.69 12.8556 224.679 14.0705C224.668 15.2854 224.65 16.5702 224.62 17.9213C224.58 20.0602 224.072 21.5991 223.096 22.5342C222.121 23.4693 220.534 23.9331 218.347 23.9331H212.424ZM216.801 20.0787H218.347C218.962 20.0787 219.426 19.9388 219.746 19.6553C220.066 19.3718 220.232 18.9705 220.243 18.4441C220.272 17.4022 220.295 16.3677 220.309 15.3369C220.324 14.3061 220.331 13.2753 220.331 12.2445C220.331 11.2137 220.324 10.1792 220.309 9.14473C220.295 8.11024 220.272 7.07575 220.243 6.04495C220.232 5.52954 220.066 5.13195 219.746 4.85584C219.426 4.57973 218.958 4.43983 218.347 4.43983H216.801V20.0823V20.0787Z" fill="white"/>
<path d="M229.09 23.4766L231.221 19.7878C231.144 19.6074 231.096 19.4049 231.089 19.1767C231.048 18.1864 231.019 17.0967 230.993 15.9076C230.967 14.7221 230.956 13.4999 230.956 12.2445C230.956 10.9891 230.967 9.77058 230.993 8.58147C231.019 7.39604 231.048 6.30633 231.089 5.31234C231.107 4.84479 231.273 4.48769 231.578 4.23367C231.884 3.97965 232.314 3.85448 232.87 3.85448C233.426 3.85448 233.853 3.97965 234.155 4.23367C234.457 4.48769 234.612 4.84848 234.623 5.31234C234.671 6.30633 234.704 7.39604 234.726 8.58147C234.744 9.7669 234.755 10.9891 234.755 12.2445C234.755 12.7415 234.748 13.2091 234.744 13.695L239.007 6.31001C239.007 6.25111 239.007 6.18852 239.004 6.12962C238.937 4.03856 238.437 2.54388 237.502 1.64193C236.567 0.743654 235.024 0.290835 232.874 0.290835C230.724 0.290835 229.185 0.739972 228.228 1.64193C227.271 2.54388 226.767 4.03856 226.719 6.12962C226.7 7.08312 226.686 8.07343 226.674 9.10424C226.667 10.135 226.66 11.1806 226.66 12.2408C226.66 13.3011 226.663 14.3466 226.674 15.3774C226.686 16.4082 226.7 17.4022 226.719 18.3557C226.767 20.4578 227.271 21.9599 228.228 22.8655C228.478 23.1011 228.769 23.2999 229.097 23.4766H229.09Z" fill="white"/>
<path d="M69.5279 22.9907L71.8399 18.9889C71.8399 18.9521 71.8178 18.9227 71.8178 18.8859C71.7773 17.8919 71.7479 16.8022 71.7221 15.6167C71.6963 14.4313 71.6853 13.2091 71.6853 11.9537C71.6853 10.6983 71.6963 9.47606 71.7221 8.29064C71.7479 7.10521 71.7773 6.01181 71.8178 5.0215C71.8362 4.55396 72.0019 4.19686 72.3074 3.94284C72.613 3.68882 73.0437 3.56365 73.5996 3.56365C74.1555 3.56365 74.5826 3.68882 74.8845 3.94284C75.1863 4.19686 75.341 4.55764 75.352 5.0215C75.3999 6.01181 75.433 7.10521 75.4551 8.29064C75.4735 9.47606 75.4845 10.6983 75.4845 11.9537C75.4845 12.2077 75.4809 12.4433 75.4772 12.6937L79.6888 5.39701C79.5636 3.54892 79.0887 2.1831 78.2272 1.35109C77.2921 0.452819 75.7496 0 73.5996 0C71.4497 0 69.9108 0.449137 68.9536 1.35109C67.9965 2.25305 67.4921 3.74772 67.4442 5.83879C67.4258 6.79228 67.4111 7.78628 67.4001 8.81708C67.389 9.84789 67.3853 10.8934 67.3853 11.9537C67.3853 13.0139 67.389 14.0595 67.4001 15.0903C67.4074 16.1211 67.4221 17.1151 67.4442 18.0649C67.4921 20.167 67.9965 21.669 68.9536 22.5747C69.1193 22.733 69.3291 22.8581 69.5316 22.9907H69.5279Z" fill="white"/>
</svg>
