<svg width="145" height="32" viewBox="0 0 145 32" fill="none" xmlns="http://www.w3.org/2000/svg">
<path fill-rule="evenodd" clip-rule="evenodd" d="M14.8107 0L10.8468 8.78965L6.86208 0H0V14.1176H4.39425V4.38494L8.78945 14.1176H12.8852L17.2607 4.38494V14.1176H21.6558V0H14.8107Z" fill="white"/>
<path fill-rule="evenodd" clip-rule="evenodd" d="M32.8099 10.7013C35.1845 10.7013 36.7362 9.64719 36.7362 7.99731C36.7362 6.36719 35.1845 5.31213 32.8099 5.31213C30.4344 5.31213 28.8836 6.36719 28.8836 7.99731C28.8836 9.64625 30.4344 10.7013 32.8099 10.7013ZM24.4395 7.99731C24.4395 4.25802 27.7537 1.86084 32.8099 1.86084C37.8661 1.86084 41.1804 4.25802 41.1804 7.99731C41.1804 11.7375 37.8661 14.1535 32.8099 14.1535C27.7537 14.1535 24.4395 11.7375 24.4395 7.99825M41.525 2.2439H46.5058L50.3361 10.8368L54.1475 2.2439H59.0888L53.5534 13.7705H47.0604L41.525 2.2439ZM71.7123 6.77002C71.1944 5.46649 69.9111 4.9479 67.9959 4.9479C65.9085 4.9479 64.5875 5.50413 64.1073 6.77002H71.7123ZM59.4532 8.01707C59.4532 4.23825 62.7279 1.86084 67.8236 1.86084C73.1868 1.86084 76.2901 4.2966 76.2901 8.89896H64.0122C64.3954 10.3954 65.8511 11.0665 68.1108 11.0665C69.9308 11.0665 71.4053 10.5488 71.8648 9.68578H76.1941C75.2751 12.658 72.7649 14.1724 67.8425 14.1535C62.7091 14.1535 59.4344 11.7564 59.4532 8.01707ZM78.339 2.2439H82.7643V4.75684C83.9318 2.66555 85.3884 1.86084 87.4184 1.86084C88.4918 1.86084 89.2761 2.03308 90.2148 2.43496V6.29096C88.9503 5.82978 88.1848 5.7159 87.2461 5.7159C85.9628 5.7159 84.2962 6.08013 82.7643 8.1319V13.7705H78.339V2.2439Z" fill="white"/>
<mask id="mask0_613_3971" style="mask-type:luminance" maskUnits="userSpaceOnUse" x="0" y="0" width="145" height="32">
<path d="M0 32H144.555V0H0V32Z" fill="white"/>
</mask>
<g mask="url(#mask0_613_3971)">
<path fill-rule="evenodd" clip-rule="evenodd" d="M92.7812 8.86012H108.009V5.63848H92.7822L92.7812 8.86012ZM110.633 9.93401H115.268C115.268 10.7585 115.919 11.2573 118.602 11.2573C120.996 11.2573 121.589 10.9128 121.589 10.2597C121.589 9.56977 120.919 9.37777 118.543 9.18671L117.547 9.10954C113.028 8.7453 110.902 8.22765 110.902 5.69589C110.902 2.72271 114.157 1.8606 118.295 1.8606C122.451 1.8606 125.554 2.91471 125.745 5.73448H121.11C121.091 4.96742 120.23 4.58342 118.2 4.58342C116.207 4.58342 115.46 4.91001 115.46 5.42671C115.46 5.98389 115.977 6.17495 118.237 6.34812L119.425 6.44412C123.792 6.7886 126.147 7.24977 126.147 10.0488C126.147 13.2912 123.121 14.1533 118.678 14.1533C113.659 14.1533 110.613 13.0032 110.633 9.93401ZM139.977 6.76977C139.459 5.46624 138.177 4.94765 136.261 4.94765C134.173 4.94765 132.852 5.50389 132.373 6.76977H139.977ZM127.718 8.01683C127.718 4.23801 130.993 1.8606 136.088 1.8606C141.451 1.8606 144.555 4.29636 144.555 8.89871H132.277C132.66 10.3952 134.116 11.0662 136.376 11.0662C138.195 11.0662 139.67 10.5486 140.13 9.68554H144.459C143.54 12.6578 141.03 14.1721 136.107 14.1533C130.975 14.1533 127.699 11.7561 127.718 8.01683Z" fill="white"/>
</g>
<mask id="mask1_613_3971" style="mask-type:luminance" maskUnits="userSpaceOnUse" x="0" y="0" width="145" height="32">
<path d="M0 32H144.555V0H0V32Z" fill="white"/>
</mask>
<g mask="url(#mask1_613_3971)">
<path fill-rule="evenodd" clip-rule="evenodd" d="M15.4766 23.8306L3.8116 25.0767L15.4766 26.3426V30.0235L0.267578 27.935V22.2193L15.4766 20.1487V23.8306Z" fill="#FF2D00"/>
</g>
<mask id="mask2_613_3971" style="mask-type:luminance" maskUnits="userSpaceOnUse" x="0" y="0" width="145" height="32">
<path d="M0 32H144.555V0H0V32Z" fill="white"/>
</mask>
<g mask="url(#mask2_613_3971)">
<path fill-rule="evenodd" clip-rule="evenodd" d="M18.4824 20.2634H21.164V22.7179C22.6206 20.8958 24.8605 19.8794 27.7718 19.8794C31.411 19.8794 33.633 21.3561 33.633 25.8248V31.597H30.9524V26.7264C30.9524 23.389 29.6493 22.1241 26.5657 22.1241C23.3672 22.1241 21.164 23.869 21.164 26.8215V31.597H18.4824V20.2634ZM42.7313 30.1391C44.589 30.1391 46.7734 29.5264 49.0718 28.4328V26.9363C46.5051 26.3038 45.202 26.093 43.1343 26.093C40.6439 26.093 39.4952 26.6106 39.4952 28.0111C39.4952 29.4106 40.6062 30.1391 42.7313 30.1391ZM44.7039 22.1231C42.7511 22.1231 40.7211 22.5843 38.0198 23.293L37.6375 20.9344C40.2607 20.2436 42.8085 19.8803 45.0692 19.8803C49.7422 19.8803 51.7345 21.4332 51.7345 25.1339V31.597H49.0718V30.2163C46.9655 31.3476 44.4751 31.9998 42.0995 31.9998C38.6139 31.9998 36.7176 30.6389 36.7176 28.1834C36.7176 25.5763 38.9962 24.1946 43.0571 24.1946C44.896 24.1946 46.9646 24.5015 49.0718 25.0577V24.7697C49.0718 22.6596 47.5587 22.1231 44.7039 22.1231ZM62.8816 17.9998H65.5057L70.045 29.6986L75.6002 17.9998H78.9521L84.5262 29.6986L89.0645 17.9998H91.6698L86.3641 31.597H82.7824L77.2856 19.9358L71.7878 31.597H68.2061L62.8816 17.9998ZM104.694 24.8845C104.236 22.8139 102.549 21.8925 99.8105 21.8925C97.0517 21.8925 95.2712 22.8525 94.8108 24.8855L104.694 24.8845ZM92.0342 25.9396C92.0342 22.1419 95.0801 19.8784 99.7917 19.8784C104.542 19.8784 107.433 22.2191 107.433 26.8601H94.7731C95.1564 28.8742 96.9952 29.9471 100.002 29.9471C102.473 29.9471 104.14 29.181 104.637 27.8765H107.262C106.572 30.4469 104.063 31.981 99.9254 31.981C95.0217 31.981 92.0342 29.7372 92.0342 25.9396ZM118.122 29.7372C121.187 29.7372 123.083 28.2408 123.083 25.9198C123.083 23.6186 121.187 22.1231 118.121 22.1231C114.846 22.1231 112.855 23.6196 112.855 25.9198C112.855 28.2417 114.846 29.7372 118.122 29.7372ZM110.326 16.2549H112.855V22.6596C114.022 20.9146 116.207 19.8794 118.926 19.8794C123.14 19.8794 125.861 22.2577 125.861 25.9198C125.861 29.5838 123.139 31.981 118.926 31.981C116.207 31.981 114.022 30.9457 112.855 29.181V31.597H110.326V16.2549Z" fill="white"/>
</g>
<mask id="mask3_613_3971" style="mask-type:luminance" maskUnits="userSpaceOnUse" x="0" y="0" width="145" height="32">
<path d="M0 32H144.555V0H0V32Z" fill="white"/>
</mask>
<g mask="url(#mask3_613_3971)">
<path fill-rule="evenodd" clip-rule="evenodd" d="M128.676 26.3237L140.34 25.0767L128.676 23.8108V20.1289L143.884 22.2183V27.935L128.676 30.0056V26.3237Z" fill="#FF2D00"/>
</g>
</svg>
