<svg width="20" height="24" viewBox="0 0 20 24" fill="none" xmlns="http://www.w3.org/2000/svg">
<path d="M20 11.7373L19.7637 12.0166L10.7637 22.6465L10 23.5479L9.2373 22.6465L3.96094 16.415L5.91895 15.6318L10 20.4512L18 11.0029V10H20V11.7373ZM4.53809 14H1.91602L0.750977 12.624L2.59277 11.7031L4.53809 14ZM10 5C12.2091 5 14 6.79086 14 9C14 11.2091 12.2091 13 10 13C8.10712 13 6.52169 11.6851 6.10645 9.91895L8.08105 8.43848C8.02899 8.61671 8 8.80494 8 9C8 10.1046 8.89543 11 10 11C11.1046 11 12 10.1046 12 9C12 7.89543 11.1046 7 10 7H6.53613C7.22781 5.80464 8.51961 5 10 5ZM14.6035 0.297852L19.7119 5.4834L20 5.77539V7.75L18 9.25V6.59375L13.4727 2H6.52734L2 6.59375V11H0V5.77539L0.288086 5.4834L5.39648 0.297852L5.69043 0H14.3096L14.6035 0.297852Z" fill="white"/>
</svg>
