<svg width="32" height="30" viewBox="0 0 32 30" fill="none" xmlns="http://www.w3.org/2000/svg">
<path d="M21.0625 6.85645H19.0625L21.0625 9.85645H20.0625L21.0625 11.8564V29.749L8.75293 21.3545H0V8.10449H8.7627L21.0625 0V6.85645ZM9.625 9.93066V19.5303L9.62598 19.5293L19.0625 25.9639V23.8564L21.0625 20.8564H19.0625V3.71191L9.625 9.93066ZM2 12.8564H0.0625V15.8564L2 12.9502V19.3545H7.625V10.1045H2V12.8564ZM31.832 11.6865L28.7891 14.7295L31.832 17.7725L30.418 19.1865L27.375 16.1436L24.332 19.1865L22.918 17.7725L25.9609 14.7295L22.918 11.6865L24.332 10.2725L27.375 13.3154L30.418 10.2725L31.832 11.6865ZM2 12.9502V12.8564H2.0625L2 12.9502Z" fill="#FFAD33"/>
</svg>
