<svg width="32" height="32" viewBox="0 0 32 32" fill="none" xmlns="http://www.w3.org/2000/svg">
<path d="M16.9962 28.0039H14.8002L16.9962 24.0439V16.0039H14.5962V31.9999H16.9962V28.0039Z" fill="#FFAD33"/>
<path d="M9.7999 32.0001L9.7999 11.9961H7.3999L7.3999 32.0001L9.7999 32.0001Z" fill="#FFAD33"/>
<path d="M23.898 32.0001V3.99609H21.498V32.0001L23.898 32.0001Z" fill="#FFAD33"/>
<path d="M2.4 16.004L5.10375e-07 20.324L4.89393e-07 20.804H1.2L3.94976e-07 22.964L0 32H2.4L2.4 1.04907e-07L9.21927e-07 0L6.99208e-07 16.004H2.4Z" fill="#FFAD33"/>
<path d="M31.2979 16.004L28.8979 20.324V20.804H30.0979L28.8979 22.964V32H31.2979V8H28.8979V16.004H31.2979Z" fill="#FFAD33"/>
</svg>
