<svg width="16" height="16" viewBox="0 0 16 16" fill="none" xmlns="http://www.w3.org/2000/svg">
<path d="M13.6001 7.6001C13.6001 4.9921 11.9201 2.7681 9.5841 1.9441L8.7921 3.3681C10.6401 3.8881 12.0001 5.5841 12.0001 7.6001C12.0001 10.0241 10.0241 12.0001 7.6001 12.0001C5.1761 12.0001 3.2001 10.0241 3.2001 7.6001C3.2001 5.1761 5.1761 3.2001 7.6001 3.2001C7.7361 3.2001 7.8641 3.2081 8.0001 3.2241V1.6241C7.8641 1.6161 7.7361 1.6001 7.6001 1.6001C4.2881 1.6001 1.6001 4.2881 1.6001 7.6001C1.6001 10.9121 4.2881 13.6001 7.6001 13.6001C8.5361 13.6001 9.4161 13.3681 10.2081 12.9761L11.2001 11.2001V12.3841C11.2001 12.3841 11.2241 12.3681 11.2321 12.3601L13.8321 14.9601L14.9601 13.8321L12.3601 11.2321C13.1281 10.2241 13.5921 8.9681 13.5921 7.6001H13.6001Z" fill="#FFAD33"/>
</svg>
