<svg width="21" height="20" viewBox="0 0 21 20" fill="none" xmlns="http://www.w3.org/2000/svg">
<path d="M20.0612 4.83515C20.5 6.38463 20.5 9.70494 20.5 9.70494C20.5 9.70494 20.5 12.9884 20.0612 14.5747C19.8419 15.4602 19.1472 16.1242 18.3062 16.3456C16.734 16.7514 10.5183 16.7514 10.5183 16.7514C10.5183 16.7514 4.266 16.7514 2.69378 16.3456C1.85283 16.1242 1.15814 15.4602 0.938757 14.5747C0.5 12.9884 0.5 9.70494 0.5 9.70494C0.5 9.70494 0.5 6.38463 0.938757 4.83515C1.15814 3.94973 1.85283 3.24878 2.69378 3.02743C4.266 2.58472 10.5183 2.58472 10.5183 2.58472C10.5183 2.58472 16.734 2.58472 18.3062 3.02743C19.1472 3.24878 19.8419 3.94973 20.0612 4.83515ZM8.47075 12.6932L13.6627 9.70494L8.47075 6.71666V12.6932Z" fill="white"/>
</svg>
